HIERARCHY
ROOT Root
{
  OFFSET 0.0 0.0 0.0
  CHANNELS 6 Xposition Yposition Zposition Zrotation Yrotation Xrotation
  JOINT Hips
  {
    OFFSET 0.0 100.0 0.0
    CHANNELS 6 Xposition Yposition Zposition Zrotation Yrotation Xrotation
    JOINT Spine1
    {
      OFFSET -0.013727 5.003763 -0.053727
      CHANNELS 3 Zrotation Yrotation Xrotation
      JOINT Spine2
      {
        OFFSET -0.0 7.125301 -0.029825
        CHANNELS 3 Zrotation Yrotation Xrotation
        JOINT Chest
        {
          OFFSET -1e-06 7.550063 -0.815971
          CHANNELS 3 Zrotation Yrotation Xrotation
          JOINT Neck1
          {
            OFFSET -0.181677 26.311295 -0.553348
            CHANNELS 3 Zrotation Yrotation Xrotation
            JOINT Neck2
            {
              OFFSET -3e-06 7.709397 2.302585
              CHANNELS 3 Zrotation Yrotation Xrotation
              JOINT Head
              {
                OFFSET -5e-06 6.128916 1.953709
                CHANNELS 3 Zrotation Yrotation Xrotation
                JOINT HeadEnd
                {
                  OFFSET 0.003598 16.065403 -1.835379
                  CHANNELS 3 Zrotation Yrotation Xrotation
                }
                JOINT Jaw
                {
                  OFFSET 0.002637 0.475592 3.094941
                  CHANNELS 3 Zrotation Yrotation Xrotation
                }
                JOINT LeftEye
                {
                  OFFSET 3.206381 5.380205 7.586883
                  CHANNELS 3 Zrotation Yrotation Xrotation
                }
                JOINT RightEye
                {
                  OFFSET -3.22244 5.361869 7.558234
                  CHANNELS 3 Zrotation Yrotation Xrotation
                }
              }
            }
          }
          JOINT LeftShoulder
          {
            OFFSET 1.621652 23.237164 5.113413
            CHANNELS 3 Zrotation Yrotation Xrotation
            JOINT LeftArm
            {
              OFFSET 14.919846 2e-06 -5.502326
              CHANNELS 3 Zrotation Yrotation Xrotation
              JOINT LeftForeArm
              {
                OFFSET 28.739307 0.0 -0.002588
                CHANNELS 3 Zrotation Yrotation Xrotation
                JOINT LeftHand
                {
                  OFFSET 27.093981 -1e-06 0.002609
                  CHANNELS 3 Zrotation Yrotation Xrotation
                  JOINT LeftHandThumb1
                  {
                    OFFSET 2.276482 -1.392045 3.191413
                    CHANNELS 3 Zrotation Yrotation Xrotation
                    JOINT LeftHandThumb2
                    {
                      OFFSET 4.012836 -1.828127 1.641654
                      CHANNELS 3 Zrotation Yrotation Xrotation
                      JOINT LeftHandThumb3
                      {
                        OFFSET 2.798515 0.0 -3e-06
                        CHANNELS 3 Zrotation Yrotation Xrotation
                        JOINT LeftHandThumbEnd
                        {
                          OFFSET 3.180793 -4e-06 4e-06
                          CHANNELS 3 Zrotation Yrotation Xrotation
                        }
                      }
                    }
                  }
                  JOINT LeftHandIndex1
                  {
                    OFFSET 3.247555 -0.531998 2.296169
                    CHANNELS 3 Zrotation Yrotation Xrotation
                    JOINT LeftHandIndex2
                    {
                      OFFSET 6.364578 0.01206 0.1786
                      CHANNELS 3 Zrotation Yrotation Xrotation
                      JOINT LeftHandIndex3
                      {
                        OFFSET 3.662364 0.0 0.0
                        CHANNELS 3 Zrotation Yrotation Xrotation
                        JOINT LeftHandIndex4
                        {
                          OFFSET 2.329242 4e-06 4e-06
                          CHANNELS 3 Zrotation Yrotation Xrotation
                          JOINT LeftHandIndexEnd
                          {
                            OFFSET 2.759615 -0.180537 -0.113024
                            CHANNELS 3 Zrotation Yrotation Xrotation
                          }
                        }
                      }
                    }
                  }
                  JOINT LeftHandMiddle1
                  {
                    OFFSET 3.163495 0.240981 1.000332
                    CHANNELS 3 Zrotation Yrotation Xrotation
                    JOINT LeftHandMiddle2
                    {
                      OFFSET 6.19078 -0.259278 -1.002548
                      CHANNELS 3 Zrotation Yrotation Xrotation
                      JOINT LeftHandMiddle3
                      {
                        OFFSET 4.35652 -4e-06 -1e-06
                        CHANNELS 3 Zrotation Yrotation Xrotation
                        JOINT LeftHandMiddle4
                        {
                          OFFSET 2.996877 -8e-06 0.0
                          CHANNELS 3 Zrotation Yrotation Xrotation
                          JOINT LeftHandMiddleEnd
                          {
                            OFFSET 2.304287 -0.294569 -0.031741
                            CHANNELS 3 Zrotation Yrotation Xrotation
                          }
                        }
                      }
                    }
                  }
                  JOINT LeftHandRing1
                  {
                    OFFSET 2.882643 -0.053652 -0.322543
                    CHANNELS 3 Zrotation Yrotation Xrotation
                    JOINT LeftHandRing2
                    {
                      OFFSET 5.854541 -0.486202 -1.373841
                      CHANNELS 3 Zrotation Yrotation Xrotation
                      JOINT LeftHandRing3
                      {
                        OFFSET 4.350578 0.0 3e-06
                        CHANNELS 3 Zrotation Yrotation Xrotation
                        JOINT LeftHandRing4
                        {
                          OFFSET 2.651321 7e-06 2e-06
                          CHANNELS 3 Zrotation Yrotation Xrotation
                          JOINT LeftHandRingEnd
                          {
                            OFFSET 1.936105 0.077687 -7.1e-05
                            CHANNELS 3 Zrotation Yrotation Xrotation
                          }
                        }
                      }
                    }
                  }
                  JOINT LeftHandPinky1
                  {
                    OFFSET 2.8655 -0.310005 -1.600378
                    CHANNELS 3 Zrotation Yrotation Xrotation
                    JOINT LeftHandPinky2
                    {
                      OFFSET 5.087849 -1.331141 -1.77123
                      CHANNELS 3 Zrotation Yrotation Xrotation
                      JOINT LeftHandPinky3
                      {
                        OFFSET 3.070974 4e-06 0.0
                        CHANNELS 3 Zrotation Yrotation Xrotation
                        JOINT LeftHandPinky4
                        {
                          OFFSET 1.549672 0.0 1e-06
                          CHANNELS 3 Zrotation Yrotation Xrotation
                          JOINT LeftHandPinkyEnd
                          {
                            OFFSET 1.944893 -0.157802 0.057219
                            CHANNELS 3 Zrotation Yrotation Xrotation
                          }
                        }
                      }
                    }
                  }
                }
              }
            }
          }
          JOINT RightShoulder
          {
            OFFSET -1.380118 23.180309 5.214158
            CHANNELS 3 Zrotation Yrotation Xrotation
            JOINT RightArm
            {
              OFFSET -15.037196 1.2e-05 -5.545604
              CHANNELS 3 Zrotation Yrotation Xrotation
              JOINT RightForeArm
              {
                OFFSET -28.736639 2e-06 -0.002597
                CHANNELS 3 Zrotation Yrotation Xrotation
                JOINT RightHand
                {
                  OFFSET -27.133619 -0.0 0.002613
                  CHANNELS 3 Zrotation Yrotation Xrotation
                  JOINT RightHandThumb1
                  {
                    OFFSET -2.274032 -1.383988 3.163127
                    CHANNELS 3 Zrotation Yrotation Xrotation
                    JOINT RightHandThumb2
                    {
                      OFFSET -4.011429 -1.827466 1.640914
                      CHANNELS 3 Zrotation Yrotation Xrotation
                      JOINT RightHandThumb3
                      {
                        OFFSET -2.794935 -4e-06 -3e-06
                        CHANNELS 3 Zrotation Yrotation Xrotation
                        JOINT RightHandThumbEnd
                        {
                          OFFSET -3.183852 4e-06 1e-06
                          CHANNELS 3 Zrotation Yrotation Xrotation
                        }
                      }
                    }
                  }
                  JOINT RightHandIndex1
                  {
                    OFFSET -3.253266 -0.520057 2.282866
                    CHANNELS 3 Zrotation Yrotation Xrotation
                    JOINT RightHandIndex2
                    {
                      OFFSET -6.341917 0.012471 0.178266
                      CHANNELS 3 Zrotation Yrotation Xrotation
                      JOINT RightHandIndex3
                      {
                        OFFSET -3.654871 -8e-06 -0.0
                        CHANNELS 3 Zrotation Yrotation Xrotation
                        JOINT RightHandIndex4
                        {
                          OFFSET -2.327586 0.0 1e-06
                          CHANNELS 3 Zrotation Yrotation Xrotation
                          JOINT RightHandIndexEnd
                          {
                            OFFSET -2.76179 -0.180656 -0.113078
                            CHANNELS 3 Zrotation Yrotation Xrotation
                          }
                        }
                      }
                    }
                  }
                  JOINT RightHandMiddle1
                  {
                    OFFSET -3.168106 0.246593 1.00103
                    CHANNELS 3 Zrotation Yrotation Xrotation
                    JOINT RightHandMiddle2
                    {
                      OFFSET -6.180828 -0.258836 -1.000895
                      CHANNELS 3 Zrotation Yrotation Xrotation
                      JOINT RightHandMiddle3
                      {
                        OFFSET -4.348901 0.0 -0.0
                        CHANNELS 3 Zrotation Yrotation Xrotation
                        JOINT RightHandMiddle4
                        {
                          OFFSET -3.00024 -4e-06 -2e-06
                          CHANNELS 3 Zrotation Yrotation Xrotation
                          JOINT RightHandMiddleEnd
                          {
                            OFFSET -2.30252 -0.29437 -0.031706
                            CHANNELS 3 Zrotation Yrotation Xrotation
                          }
                        }
                      }
                    }
                  }
                  JOINT RightHandRing1
                  {
                    OFFSET -2.88569 -0.067952 -0.308858
                    CHANNELS 3 Zrotation Yrotation Xrotation
                    JOINT RightHandRing2
                    {
                      OFFSET -5.854198 -0.48613 -1.373731
                      CHANNELS 3 Zrotation Yrotation Xrotation
                      JOINT RightHandRing3
                      {
                        OFFSET -4.33881 -4e-06 -0.0
                        CHANNELS 3 Zrotation Yrotation Xrotation
                        JOINT RightHandRing4
                        {
                          OFFSET -2.654903 -4e-06 4e-06
                          CHANNELS 3 Zrotation Yrotation Xrotation
                          JOINT RightHandRingEnd
                          {
                            OFFSET -1.933568 0.077527 -5.2e-05
                            CHANNELS 3 Zrotation Yrotation Xrotation
                          }
                        }
                      }
                    }
                  }
                  JOINT RightHandPinky1
                  {
                    OFFSET -2.866425 -0.342796 -1.584145
                    CHANNELS 3 Zrotation Yrotation Xrotation
                    JOINT RightHandPinky2
                    {
                      OFFSET -5.091371 -1.332055 -1.772385
                      CHANNELS 3 Zrotation Yrotation Xrotation
                      JOINT RightHandPinky3
                      {
                        OFFSET -3.062664 -4e-06 1e-06
                        CHANNELS 3 Zrotation Yrotation Xrotation
                        JOINT RightHandPinky4
                        {
                          OFFSET -1.546529 4e-06 -2e-06
                          CHANNELS 3 Zrotation Yrotation Xrotation
                          JOINT RightHandPinkyEnd
                          {
                            OFFSET -1.945119 -0.157718 0.057211
                            CHANNELS 3 Zrotation Yrotation Xrotation
                          }
                        }
                      }
                    }
                  }
                }
              }
            }
          }
        }
      }
    }
    JOINT LeftLeg
    {
      OFFSET 10.043214 -8.434526 2.595655
      CHANNELS 3 Zrotation Yrotation Xrotation
      JOINT LeftShin
      {
        OFFSET -1e-06 -43.221752 -0.802913
        CHANNELS 3 Zrotation Yrotation Xrotation
        JOINT LeftFoot
        {
          OFFSET 1e-06 -42.155094 -3.481523
          CHANNELS 3 Zrotation Yrotation Xrotation
          JOINT LeftToeBase
          {
            OFFSET 0.0 -5.059472 13.231529
            CHANNELS 3 Zrotation Yrotation Xrotation
            JOINT LeftToeEnd
            {
              OFFSET -0.009607 -1.647619 6.513017
              CHANNELS 3 Zrotation Yrotation Xrotation
            }
          }
        }
      }
    }
    JOINT RightLeg
    {
      OFFSET -10.047278 -8.29526 2.620317
      CHANNELS 3 Zrotation Yrotation Xrotation
      JOINT RightShin
      {
        OFFSET 1e-06 -43.362206 -0.805556
        CHANNELS 3 Zrotation Yrotation Xrotation
        JOINT RightFoot
        {
          OFFSET 2e-06 -42.117393 -3.478398
          CHANNELS 3 Zrotation Yrotation Xrotation
          JOINT RightToeBase
          {
            OFFSET -0.0 -5.079609 13.284196
            CHANNELS 3 Zrotation Yrotation Xrotation
            JOINT RightToeEnd
            {
              OFFSET 0.009532 -1.634378 6.460591
              CHANNELS 3 Zrotation Yrotation Xrotation
            }
          }
        }
      }
    }
  }
}
MOTION
Frames: 4
Frame Time: 0.03333333333333333
-2.479231 0.0 2.064764 0.0 2.683792 0.0 0.0 99.56768 0.0 -1.532913 0.065116 2.386078 0.655209 -0.561313 -1.050927 -0.475182 -2.690028 -5.360069 0.252846 -4.762249 14.953071 1.342668 1.875305 4.042021 -2.304141 -4.811464 -3.521134 -0.043469 -6.777981 -8.696183 7.7e-05 -2.3e-05 6e-06 0.019496 -0.034338 0.022073 0.691925 -3.739382 -10.508367 -0.656382 3.659919 -10.495715 1.163978 -18.906118 13.737024 -93.543236 -61.726635 25.347124 -1.438467 -32.059647 0.932288 10.37172 3.348162 -78.399689 -5.882111 9.861294 0.70259 -10.936878 -0.360573 7.156212 0.0 8.774831 0.0 -13.951729 18.198313 7.531775 -1.844034 2.498503 -2.507281 -10.163606 4.678948 4.621114 -20.976038 -4e-06 -0.0 -21.226301 2.451697 -3.594003 -1e-06 -7e-06 -1e-06 -1.362682 2.240802 -0.746324 -21.334929 0.584911 3.008325 -13.821222 -4e-06 2e-06 -23.887184 -0.249081 -0.839485 -60.01022 2.957299 -1.437276 -0.294025 1.679688 0.833258 -14.218218 0.093214 1.300583 -34.21207 -0.287565 0.96717 -20.033228 0.964538 1.212844 -2e-06 -1e-06 0.0 -3.440391 0.788234 0.501657 -15.928198 -3.167308 2.999709 -6.33883 0.0 1e-06 -18.123459 3.648185 -4.905676 -3e-06 1e-06 -2e-06 6.842608 17.695181 13.686215 18.607655 35.840462 -50.710209 0.258195 15.755083 0.178501 -10.445254 4.663625 -72.457169 2.243542 -5.255039 -3.180162 14.282896 -0.826595 6.952511 -3e-06 -12.690611 -0.0 15.175601 -16.281635 3.556958 1.665666 -1.955921 -2.878299 4.7278 -4.170588 4.993928 11.020525 4e-06 0.0 12.109054 -3.735717 -2.866785 -1e-06 0.0 1e-06 1.291986 -1.92855 -1.49809 14.800134 0.56747 3.865613 14.242574 -1.341736 -6.66066 19.631973 0.143925 -0.648242 48.886482 -0.780457 -5.097905 0.353028 -1.51115 -0.031939 20.222797 3.684313 2.316636 18.787275 4e-06 3e-06 10.751631 -0.47987 1.39791 -0.0 0.0 -1e-06 3.273807 0.305948 -0.58011 21.486824 11.830381 2.266141 8.16293 1e-06 1e-06 18.399088 -3.798989 -4.940573 3e-06 -2e-06 -1e-06 12.10437 24.531683 1.849293 -0.063856 -0.529929 2.806347 -12.034606 2.340518 -2.749516 1.660871 -1.764532 0.319859 0.0 -0.0 2e-06 -3.341673 -4.723271 -4.286681 -0.034928 0.100208 9.822424 7.838743 -10.018533 -7.766626 -1.401276 1.029772 1.367686 -0.0 -0.0 -1e-06 
-2.634409 0.0 2.147057 0.0 2.954259 0.0 0.0 99.542023 0.0 -1.522022 0.063091 2.326961 0.607442 -0.534157 -1.036601 -0.487761 -2.704549 -5.345761 0.202072 -4.762503 14.96879 1.363248 1.844542 4.06468 -2.358951 -4.992304 -3.501979 -0.124825 -6.919058 -8.764945 7.7e-05 -2.3e-05 6e-06 0.015998 -0.035296 0.033035 0.688698 -3.73638 -10.489282 -0.660537 3.655902 -10.477797 0.858209 -18.902885 13.937532 -93.955627 -61.56501 25.960941 -1.222846 -32.352219 0.835219 10.435404 3.452524 -77.524574 -5.882107 9.861285 0.702589 -10.936875 -0.360577 7.156212 1e-06 8.774828 -2e-06 -14.024065 18.27072 7.555728 -1.844032 2.498504 -2.507278 -10.163603 4.678945 4.621109 -20.97603 -7e-06 3e-06 -21.226292 2.451697 -3.593998 -0.0 -6e-06 0.0 -1.362681 2.240799 -0.746322 -21.334921 0.584906 3.008328 -13.821218 -5e-06 4e-06 -23.887178 -0.249077 -0.83948 -60.070004 2.990125 -1.436178 -0.294024 1.679688 0.833256 -14.218214 0.09321 1.300583 -34.212063 -0.287566 0.967177 -20.033222 0.964534 1.212848 0.0 -0.0 0.0 -3.440389 0.78823 0.501657 -15.928192 -3.167314 2.999712 -6.338829 1e-06 2e-06 -18.123453 3.648181 -4.905667 -3e-06 -0.0 -2e-06 6.907856 17.416725 13.701553 18.686489 35.633152 -50.922352 0.296764 15.370523 0.175995 -10.286654 4.629247 -72.25563 2.243541 -5.255037 -3.18016 14.282888 -0.826592 6.952505 -4e-06 -12.690604 -0.0 15.143219 -16.227669 3.544267 1.665665 -1.955922 -2.878301 4.727797 -4.170586 4.993923 11.020525 4e-06 -2e-06 12.109051 -3.735715 -2.866786 -0.0 0.0 -1e-06 1.291985 -1.928549 -1.49809 14.800129 0.567472 3.865607 14.242569 -1.341734 -6.660659 19.631968 0.143928 -0.648244 48.837791 -0.79604 -5.110975 0.35303 -1.511152 -0.03194 20.222788 3.684313 2.31663 18.78727 6e-06 -2e-06 10.751625 -0.479867 1.397906 -0.0 0.0 -1e-06 3.273806 0.305948 -0.580108 21.486814 11.830377 2.266134 8.162927 3e-06 -0.0 18.39908 -3.798983 -4.940574 3e-06 1e-06 -1e-06 12.251974 24.568556 1.943454 -0.067003 -0.521919 2.70515 -12.076408 2.068705 -2.615263 1.65777 -1.788412 0.361743 -0.0 -2e-06 2e-06 -3.237083 -4.640483 -4.255555 -0.030616 0.085981 10.089088 7.701787 -10.263585 -8.026065 -1.40197 1.016083 1.365123 -0.0 -0.0 -1e-06 
-2.778279 0.0 2.241188 0.0 3.185833 0.0 0.0 99.520531 0.0 -1.483406 0.060059 2.269809 0.558466 -0.513894 -1.033871 -0.502647 -2.704087 -5.345976 0.138723 -4.771569 14.992195 1.355499 1.824046 4.064015 -2.414222 -5.117597 -3.489049 -0.193185 -7.079017 -8.872284 7.7e-05 -2.2e-05 6e-06 0.013795 -0.038501 0.034137 0.689973 -3.735792 -10.482467 -0.666514 3.649368 -10.473368 0.592308 -18.821989 14.077137 -94.265762 -61.301743 26.248827 -1.177945 -32.767269 0.821222 10.534078 3.492767 -76.853218 -5.882109 9.861292 0.702588 -10.936877 -0.360578 7.156209 1e-06 8.774831 -0.0 -14.120865 18.333963 7.560305 -1.844033 2.498507 -2.507279 -10.163602 4.678948 4.621111 -20.97603 -5e-06 -2e-06 -21.226295 2.451695 -3.594004 -0.0 -5e-06 0.0 -1.362682 2.2408 -0.746323 -21.334923 0.584908 3.008324 -13.82122 -3e-06 1e-06 -23.887182 -0.249083 -0.839484 -60.155075 2.990115 -1.456956 -0.294026 1.679688 0.833255 -14.218215 0.093215 1.300579 -34.212055 -0.287569 0.967169 -20.033222 0.964536 1.212842 1e-06 -0.0 1e-06 -3.440392 0.788233 0.501656 -15.928192 -3.167312 2.999707 -6.338829 -1e-06 1e-06 -18.123455 3.648183 -4.905675 -3e-06 1e-06 -3e-06 6.991647 17.142344 13.712829 18.86899 35.51717 -51.18045 0.320682 15.211446 0.181657 -10.162395 4.601978 -71.968582 2.243539 -5.255038 -3.180159 14.282896 -0.826593 6.952506 -3e-06 -12.690608 -0.0 15.197967 -16.161856 3.470814 1.665668 -1.955922 -2.878298 4.727798 -4.170588 4.993925 11.020531 4e-06 -1e-06 12.109056 -3.735717 -2.866787 -1e-06 0.0 -1e-06 1.291984 -1.92855 -1.498091 14.800131 0.567471 3.865609 14.242573 -1.341737 -6.660662 19.631971 0.143926 -0.648243 48.752079 -0.805628 -5.111424 0.353029 -1.511151 -0.031941 20.222799 3.684312 2.316632 18.787279 5e-06 0.0 10.751631 -0.479868 1.397906 0.0 0.0 -2e-06 3.273807 0.305948 -0.580113 21.48682 11.83038 2.266136 8.16293 2e-06 -0.0 18.399088 -3.798986 -4.940575 3e-06 0.0 -1e-06 12.353992 24.593752 2.087052 -0.066737 -0.51204 2.506554 -12.09662 1.836894 -2.432642 1.655923 -1.794644 0.404221 0.0 -1e-06 2e-06 -3.170403 -4.549497 -4.242619 -0.028426 0.073325 10.373515 7.58415 -10.491182 -8.277404 -1.400778 1.024689 1.349266 0.0 -0.0 -1e-06 
-2.914828 0.0 2.333706 0.0 3.369695 0.0 0.0 99.495224 0.0 -1.439247 0.056985 2.216676 0.519099 -0.493249 -1.03149 -0.516178 -2.688912 -5.348798 0.072711 -4.777991 14.999509 1.33323 1.803273 4.075613 -2.46049 -5.217398 -3.478012 -0.262082 -7.216545 -8.969365 7.7e-05 -2.2e-05 6e-06 0.012744 -0.0395 0.031763 0.692982 -3.734474 -10.480809 -0.671909 3.646244 -10.473195 0.389684 -18.738815 14.15196 -94.327141 -61.003468 26.226913 -1.233572 -33.235077 0.873687 10.644197 3.480114 -76.541641 -5.882106 9.86128 0.702588 -10.936872 -0.360577 7.156206 3e-06 8.774825 -1e-06 -14.213939 18.368294 7.522599 -1.844032 2.498505 -2.507279 -10.163601 4.678943 4.62111 -20.97603 -8e-06 -1e-06 -21.226292 2.45169 -3.594 0.0 -7e-06 -1e-06 -1.36268 2.240798 -0.746325 -21.334917 0.584906 3.008324 -13.821217 -6e-06 2e-06 -23.887177 -0.249086 -0.839483 -60.163208 2.979091 -1.485066 -0.294025 1.679688 0.833256 -14.218212 0.09321 1.30058 -34.212063 -0.287572 0.967176 -20.033218 0.964532 1.212849 -1e-06 0.0 1e-06 -3.440388 0.788233 0.501657 -15.928191 -3.167312 2.999706 -6.338827 -2e-06 1e-06 -18.123453 3.648179 -4.905673 -3e-06 1e-06 -3e-06 7.064646 16.885138 13.709994 19.122221 35.478111 -51.374397 0.298682 15.23305 0.182127 -10.056844 4.577865 -71.70417 2.243542 -5.255035 -3.180156 14.282887 -0.826594 6.952503 -4e-06 -12.690601 1e-06 15.287828 -16.105734 3.371664 1.665667 -1.955922 -2.8783 4.727797 -4.170586 4.993924 11.020523 5e-06 -2e-06 12.109049 -3.735713 -2.866784 -0.0 0.0 -0.0 1.291986 -1.928549 -1.49809 14.800127 0.567469 3.865607 14.242571 -1.341734 -6.660657 19.631969 0.143928 -0.648244 48.654499 -0.806964 -5.109089 0.353028 -1.51115 -0.031939 20.222786 3.684312 2.316631 18.78727 6e-06 1e-06 10.751626 -0.479868 1.397907 -0.0 0.0 -1e-06 3.273804 0.305948 -0.580111 21.486813 11.830376 2.266133 8.162926 4e-06 -1e-06 18.39908 -3.798982 -4.940574 3e-06 -1e-06 -0.0 12.448447 24.639736 2.20608 -0.069137 -0.506836 2.369894 -12.141335 1.632724 -2.290779 1.655736 -1.791746 0.446503 0.0 -0.0 2e-06 -3.114056 -4.48204 -4.233919 -0.031196 0.066939 10.642754 7.493862 -10.674314 -8.537054 -1.397758 1.044487 1.337235 0.0 -0.0 -1e-06 
